<svg width="52" height="75" viewBox="0 0 52 75" fill="none" xmlns="http://www.w3.org/2000/svg">
<path d="M38.8164 52.203L39.3522 54.6449L40.6311 54.3643L41.1288 53.1533L38.8164 52.203ZM0.395089 58.8229C-0.349311 59.9857 -0.0100863 61.5319 1.15277 62.2763L20.1026 74.407C21.2655 75.1514 22.8116 74.8121 23.556 73.6493C24.3004 72.4864 23.9612 70.9403 22.7983 70.1959L5.95402 59.413L16.7369 42.5687C17.4813 41.4059 17.142 39.8598 15.9792 39.1154C14.8163 38.371 13.2702 38.7102 12.5258 39.873L0.395089 58.8229ZM0.0865934 33.9014C-0.27237 35.2346 0.517432 36.6064 1.85067 36.9654C3.1839 37.3244 4.55569 36.5346 4.91466 35.2013L2.50063 34.5514L0.0865934 33.9014ZM7.99578 14.1417L6.96108 11.8659L5.88816 12.3536L5.58175 13.4917L7.99578 14.1417ZM32.1267 3.17072L34.2295 1.81873L33.0603 1.23978e-05L31.092 0.894884L32.1267 3.17072ZM48.5006 28.6388L50.813 29.5891L51.3085 28.3833L50.6035 27.2868L48.5006 28.6388ZM38.8164 52.203L38.2807 49.7611L1.96487 57.7288L2.50063 60.1707L3.03639 62.6126L39.3522 54.6449L38.8164 52.203ZM2.50063 34.5514L4.91466 35.2013L10.4098 14.7916L7.99578 14.1417L5.58175 13.4917L0.0865934 33.9014L2.50063 34.5514ZM7.99578 14.1417L9.03047 16.4175L33.1614 5.44655L32.1267 3.17072L31.092 0.894884L6.96108 11.8659L7.99578 14.1417ZM32.1267 3.17072L30.0238 4.5227L46.3977 29.9908L48.5006 28.6388L50.6035 27.2868L34.2295 1.81873L32.1267 3.17072ZM48.5006 28.6388L46.1883 27.6885L36.5041 51.2527L38.8164 52.203L41.1288 53.1533L50.813 29.5891L48.5006 28.6388Z" fill="#D9D9D9"/>
</svg>
